<?xml version="1.0" encoding="utf-8"?>
<!-- Generator: Adobe Illustrator 22.0.1, SVG Export Plug-In . SVG Version: 6.00 Build 0)  -->
<svg version="1.1" id="Ebene_1" xmlns="http://www.w3.org/2000/svg" xmlns:xlink="http://www.w3.org/1999/xlink" x="0px" y="0px"
	 viewBox="0 0 317.2 52.5" style="enable-background:new 0 0 317.2 52.5;" xml:space="preserve">
<style type="text/css">
	.st0{fill:#FFFFFF;}
</style>
<g>
	<path class="st0" d="M16.6,31.4c-1,3.6-1.6,6-1.7,7.5c-0.1-0.6-0.3-1.7-0.7-3.3c-0.4-1.6-0.7-3-1.1-4.2L6.7,11.2h-7.3l11.5,33.9
		h7.8l11.5-33.9H23L16.6,31.4z M52.4,39.2H40.1v-8.7h11.5v-5.9H40.1v-7.4h12.3v-5.9H32.9v33.9h19.5V39.2z M70.9,17.2h9.2v-6H54.5v6
		h9.2v27.9h7.2V17.2z M90.8,17.1H93c2.3,0,4,0.3,5.1,1c1.1,0.7,1.7,1.8,1.7,3.4c0,1.6-0.5,2.8-1.6,3.6c-1.1,0.8-2.8,1.1-5,1.1h-2.3
		V17.1z M94.7,32.1l8.1,13h8c-1.5-2.2-4.9-7.1-10-14.8c2-0.9,3.6-2.1,4.7-3.7c1.1-1.6,1.6-3.3,1.6-5.3c0-3.4-1.1-6-3.3-7.6
		c-2.2-1.7-5.6-2.5-10.2-2.5h-9.9v33.9h7.2v-13H94.7z M120.5,11.2h-7.2v33.9h7.2V11.2z"/>
	<path class="st0" d="M218.8,11.2h-7.2v13.3h-13.4V11.2H191v33.9h7.2V30.5h13.4v14.6h7.2V11.2z M245.2,39.2h-12.3v-8.7h11.5v-5.9
		h-11.5v-7.4h12.3v-5.9h-19.5v33.9h19.5V39.2z M271.6,45.1l8.7-26.5h0.2c-0.2,4.3-0.3,6.9-0.3,7.9c0,1,0,1.9,0,2.6v16h6.7V11.2h-9.8
		l-8.5,25.9h-0.1l-8-25.9h-9.8v33.9h6.4V29.4c0-1.8-0.1-5.4-0.4-10.8h0.2l8.2,26.6H271.6z M300.9,17.1h3.3c2,0,3.4,0.4,4.3,1.2
		c0.9,0.8,1.4,2,1.4,3.7c0,1.7-0.5,2.9-1.6,3.8c-1.1,0.9-2.8,1.3-5,1.3h-2.4V17.1z M313.9,13.9c-2.1-1.8-5.3-2.7-9.4-2.7h-10.8v33.9
		h7.2V33.1h3.1c4.2,0,7.4-1,9.7-2.9c2.3-1.9,3.4-4.7,3.4-8.4C317.1,18.3,316.1,15.7,313.9,13.9"/>
	<polygon class="st0" points="170.4,40.2 170.4,40.2 170.4,40.2 	"/>
	<path class="st0" d="M160.7,49.5c-1.4,0.3-2.9,0.4-4.3,0.5l-0.5,0l0,0l-0.1,0l-0.5,0c-1.6-0.2-3.2-0.4-4.7-0.8
		c-1.5-0.4-3-0.9-4.4-1.7c-1.3-0.8-2.6-1.9-3.5-3.1c-0.3-0.4-0.6-0.9-0.8-1.3c0,0,0-0.1,0-0.1c0,0,0,0,0,0c-0.1-0.3-0.1-0.7-0.1-1
		l0,0l0,0c0-0.5,0.1-0.9,0.3-1.3l0,0l0,0c0.3-0.7,0.8-1.5,1.5-2.3c0.5-0.7,1.2-1.3,1.7-2c1-1.2,2.1-2.4,3-3.7c2-3.1,3.9-5.1,7.2-5.2
		l0,0h0l0.2,0h0.1h0l0.2,0h0l0,0c0.3,0,0.6,0.1,0.9,0.1c1.1,0.2,2.2,0.7,3.1,1.4c1,0.8,1.9,1.8,2.7,2.9c0.2,0.3,0.3,0.5,0.5,0.8
		c0.9,1.4,2,2.6,3,3.7c0.6,0.6,1.2,1.3,1.7,2c0.7,0.9,1.2,1.6,1.5,2.3l0,0l0,0c0.2,0.4,0.3,0.9,0.3,1.3l0,0l0,0
		c0,1.4-0.7,2.7-2.6,4.4c-1.6,1.4-3.3,2.3-5.1,2.9C161.7,49.3,161.2,49.4,160.7,49.5 M167.6,35.7c-1.1-1.4-2.1-2.7-2.9-4.2
		c-0.9-1.5-1.9-3.1-3.4-4.2c-1.5-1.2-3.5-1.8-5.4-1.6c-1.9,0.1-3.7,0.8-5.1,2c-1.4,1.2-2.4,2.7-3.3,4.1c-0.9,1.4-2.1,2.7-3.3,3.9
		c-1.2,1.2-2.5,2.5-3.3,4.2l0-0.1c-0.2,0.4-0.4,0.9-0.5,1.4c-0.1,0.5-0.1,0.9,0,1.4c0.1,1,0.5,1.9,1.1,2.7c0.5,0.8,1.1,1.4,1.8,2
		c0.6,0.6,1.3,1.2,2.1,1.7c1.5,1,3.2,1.7,4.9,2.1c1.7,0.4,3.4,0.7,5.1,0.8l0.1,0l0,0l0.5,0l0.5,0l0.1,0l0.1,0
		c1.6-0.1,3.1-0.4,4.6-0.8c1.5-0.4,3-1.1,4.3-2c1.3-0.9,2.5-2,3.5-3.1c1-1.2,1.9-2.6,1.8-4.2c0-0.6-0.1-1.2-0.4-1.8
		C169.8,38.5,168.6,37.1,167.6,35.7"/>
	<path class="st0" d="M170.3,27.2c0.1-0.2,0.1-0.3,0.2-0.5c0-0.1,0.1-0.2,0.1-0.3c0.1-0.3,0.3-0.6,0.5-0.8c2.1-3.8,6-8.4,8-9.2
		c0.2-0.1,0.4-0.1,0.6-0.1c0.4,0,0.7,0.2,1,0.5c2.6,3.4,0.6,12-1.9,16.2c-0.9,1.6-2.1,2.4-3.7,2.4c-0.6,0-1.2-0.1-1.9-0.3
		c-2.3-0.7-3.6-2.8-3.6-5.5C169.7,28.8,170,28,170.3,27.2 M182.8,19.2c-0.2-1.1-0.6-2.2-1.3-3.1l-0.1,0l0.1,0
		c-0.3-0.5-0.9-0.8-1.5-0.9c-0.6-0.1-1.2,0.1-1.7,0.4c-1,0.5-1.9,1.3-2.8,2c-1.7,1.5-3.1,3.3-4.4,5.2c-0.7,0.9-1.2,1.9-1.8,3
		c-0.5,1.1-1,2.1-1.1,3.5c0,1.3,0.2,2.5,0.8,3.6c0.5,1.1,1.4,2.1,2.5,2.7c1.1,0.6,2.2,0.9,3.4,1c1.2,0,2.5-0.3,3.4-1.1
		c1-0.8,1.6-1.8,2.1-2.9c0.5-1,0.9-2.1,1.2-3.2c0.7-2.2,1.1-4.4,1.3-6.7C183,21.5,182.9,20.4,182.8,19.2"/>
	<path class="st0" d="M165.9,1.6c0.2,0,0.4,0,0.7,0.4c0.3,0.3,0.6,0.9,0.9,1.3c2.4,4.4,2.8,11.9,0.8,16.4c-0.9,2-2.2,3-4.1,3
		c-0.4,0-0.9-0.1-1.4-0.2c-2.4-0.5-4-2.5-4.3-5.4c-0.2-1.6,0.7-5.2,2.1-8.6c1.5-3.6,3.2-6.3,4.4-6.8C165.3,1.7,165.6,1.6,165.9,1.6
		 M158.6,21.4c0.8,1,1.9,1.8,3,2.3c1.2,0.4,2.4,0.5,3.7,0.3c1.2-0.2,2.4-1,3.2-2c0.8-1,1.2-2.2,1.5-3.4c0.3-1.2,0.5-2.4,0.6-3.6
		c0.2-2.4,0-4.8-0.5-7.2c-0.3-1.2-0.6-2.3-1.1-3.4c-0.5-1.1-1-2.2-1.8-3.1c-0.4-0.5-1-0.8-1.6-0.7c-0.6,0.1-1.2,0.3-1.7,0.7
		c-1,0.7-1.7,1.7-2.4,2.7c-1.3,2-2.3,4.2-3.1,6.5c-0.4,1.1-0.7,2.3-1,3.5c-0.3,1.2-0.5,2.5-0.2,3.8
		C157.3,19.1,157.8,20.4,158.6,21.4"/>
	<path class="st0" d="M130.9,16.7c0.3-0.3,0.6-0.5,1-0.5c0.2,0,0.4,0,0.6,0.1c2,0.8,5.9,5.5,8,9.2c0.2,0.3,0.3,0.6,0.5,0.8
		c0.1,0.1,0.1,0.2,0.1,0.3c0.1,0.2,0.2,0.3,0.2,0.5c0.4,0.9,0.6,1.6,0.6,2.2c0,2.7-1.3,4.7-3.6,5.5c-0.7,0.2-1.3,0.3-1.9,0.3
		c-1.6,0-2.8-0.8-3.7-2.4C130.3,28.6,128.3,20,130.9,16.7 M142.7,32.9c0.6-1.1,0.8-2.3,0.8-3.6c-0.1-1.4-0.6-2.5-1.1-3.5
		c-0.5-1-1.1-2-1.8-3c-1.3-1.9-2.8-3.6-4.4-5.2c-0.8-0.8-1.7-1.5-2.8-2c-0.5-0.3-1.1-0.5-1.7-0.4c-0.6,0.1-1.1,0.4-1.5,0.9l0.1,0
		l-0.1,0c-0.7,0.9-1.1,2-1.3,3.1c-0.2,1.1-0.2,2.3-0.2,3.4c0.1,2.3,0.6,4.5,1.3,6.7c0.3,1.1,0.8,2.2,1.2,3.2c0.5,1,1.1,2.1,2.1,2.9
		c0.9,0.8,2.2,1.2,3.4,1.1c1.2-0.1,2.4-0.4,3.4-1C141.2,34.9,142.1,34,142.7,32.9"/>
	<path class="st0" d="M153.1,17.2c-0.3,2.9-1.9,4.9-4.3,5.4c-0.5,0.1-0.9,0.2-1.4,0.2c-1.9,0-3.2-1-4.1-3c-1.9-4.5-1.5-12,0.8-16.4
		c0.3-0.5,0.6-1,0.9-1.3c0.3-0.3,0.6-0.4,0.7-0.4c0.3,0,0.5,0.1,0.8,0.2c1.2,0.5,2.9,3.1,4.4,6.8C152.4,12,153.3,15.5,153.1,17.2
		 M141.7,18.6c0.3,1.2,0.7,2.4,1.5,3.4c0.7,1,1.9,1.8,3.2,2c1.3,0.2,2.5,0.1,3.7-0.3c1.2-0.4,2.3-1.2,3-2.3c0.8-1,1.3-2.3,1.5-3.6
		c0.2-1.3,0-2.6-0.2-3.8c-0.3-1.2-0.6-2.4-1-3.5c-0.8-2.3-1.8-4.5-3.1-6.5c-0.7-1-1.4-2-2.4-2.7c-0.5-0.4-1.1-0.6-1.7-0.7
		c-0.6-0.1-1.3,0.2-1.6,0.7c-0.8,0.9-1.3,2-1.8,3.1c-0.5,1.1-0.8,2.2-1.1,3.4c-0.5,2.3-0.7,4.8-0.5,7.2
		C141.2,16.2,141.4,17.4,141.7,18.6"/>
</g>
</svg>
